<?xml version="1.0" encoding="UTF-8" standalone="no"?>
<!-- Created with Inkscape (http://www.inkscape.org/) -->

<svg
   xmlns:dc="http://purl.org/dc/elements/1.1/"
   xmlns:cc="http://creativecommons.org/ns#"
   xmlns:rdf="http://www.w3.org/1999/02/22-rdf-syntax-ns#"
   xmlns:svg="http://www.w3.org/2000/svg"
   xmlns="http://www.w3.org/2000/svg"
   xmlns:sodipodi="http://sodipodi.sourceforge.net/DTD/sodipodi-0.dtd"
   xmlns:inkscape="http://www.inkscape.org/namespaces/inkscape"
   id="svg2"
   version="1.1"
   inkscape:version="0.48.3.1 r9886"
   width="108.14541"
   height="100.8577"
   sodipodi:docname="Eagle_silhouettes.svg">
  <metadata
     id="metadata8">
    <rdf:RDF>
      <cc:Work
         rdf:about="">
        <dc:format>image/svg+xml</dc:format>
        <dc:type
           rdf:resource="http://purl.org/dc/dcmitype/StillImage" />
        <dc:title></dc:title>
      </cc:Work>
    </rdf:RDF>
  </metadata>
  <defs
     id="defs6" />
  <sodipodi:namedview
     pagecolor="#ffffff"
     bordercolor="#666666"
     borderopacity="1"
     objecttolerance="10"
     gridtolerance="10"
     guidetolerance="10"
     inkscape:pageopacity="0"
     inkscape:pageshadow="2"
     inkscape:window-width="1280"
     inkscape:window-height="940"
     id="namedview4"
     showgrid="false"
     inkscape:zoom="1.0824912"
     inkscape:cx="181.46434"
     inkscape:cy="-50.402514"
     inkscape:window-x="0"
     inkscape:window-y="27"
     inkscape:window-maximized="1"
     inkscape:current-layer="svg2"
     fit-margin-top="5"
     fit-margin-left="5"
     fit-margin-right="5"
     fit-margin-bottom="5" />
  <path
     style="fill:#ffffff;fill-opacity:1;stroke:#000000;stroke-opacity:1"
     d="m 23.156609,95.442089 c -1.331484,-0.3007 -3.8918,-0.58827 -5.689587,-0.63903 -1.797787,-0.0508 -4.186236,-0.51089 -5.307669,-1.0225 -1.92356,-0.87755 -1.974995,-1.05417 -0.908734,-3.12037 1.028245,-1.99255 1.543578,-2.19916 5.711149,-2.28973 9.033914,-0.19634 14.667926,-1.63578 14.667926,-3.74752 0,-0.79566 -0.544699,-1.64872 -1.210441,-1.89569 -0.665742,-0.24696 -1.210441,-0.99136 -1.210441,-1.65422 0,-1.51522 -1.695827,-4.49559 -3.026101,-5.3183 -0.554786,-0.343106 -1.008701,-1.308472 -1.008701,-2.145255 0,-0.836783 -0.334969,-1.521425 -0.74438,-1.521425 -0.88873,0 -2.233013,-3.800234 -2.966443,-8.386006 -0.291644,-1.823469 -0.889303,-3.315398 -1.328152,-3.315398 -0.438841,0 -0.622699,-0.885984 -0.408564,-1.968855 0.214135,-1.082864 0.05011,-2.1715 -0.364424,-2.419188 -0.414559,-0.24768 -0.535127,-1.001086 -0.267927,-1.674221 0.267209,-0.673143 0.04083,-1.489776 -0.503131,-1.814748 -0.543924,-0.324979 -1.030295,-2.010722 -1.080827,-3.746111 -0.05052,-1.735389 -0.31904,-3.374857 -0.596691,-3.643264 -0.277659,-0.268414 -0.331757,-0.924021 -0.120221,-1.45691 0.211529,-0.53289 -0.172625,-1.415956 -0.853675,-1.962357 -0.681059,-0.546409 -1.022096,-1.33162 -0.757865,-1.744921 0.264231,-0.413294 -0.28447,-1.440319 -1.219325,-2.282274 -0.934856,-0.841963 -1.699741,-1.791235 -1.699741,-2.109513 0,-0.318271 -1.122587,-0.988293 -2.4946301,-1.488942 -1.406241,-0.51313 -2.264097,-1.270843 -1.966247,-1.736722 0.290602,-0.454553 -0.05019,-1.041074 -0.757268,-1.303381 -0.82494,-0.306015 -1.112952,-1.002888 -0.803733,-1.944719 0.266346,-0.811227 0.09661,-1.467808 -0.379425,-1.467808 C 5.3875989,27.622711 5,27.271669 5,26.842617 5,26.413566 6.5433119,26.047007 8.4295819,26.028043 l 3.4295811,-0.03448 -3.0261011,-1.544351 c -1.664356,-0.84939 -3.026102,-1.887 -3.026102,-2.305801 0,-1.001087 3.65746,-0.962355 7.5400531,0.07985 4.577354,1.228702 4.48674,0.322351 -0.197173,-1.972139 -2.263274,-1.1087 -4.1150381,-2.360946 -4.1150381,-2.782773 0,-0.996391 2.5441441,-0.979619 5.3046271,0.03495 3.50178,1.287045 3.164552,0.318886 -0.80964,-2.324391 -7.4366001,-4.946168 -2.83239,-4.959414 6.197238,-0.01786 6.069666,3.321709 6.990432,3.000591 2.420882,-0.844272 -8.696887,-7.3176296 -6.331831,-10.84423 2.877362,-4.290515 l 4.870571,3.466136 -1.536234,-3.271113 C 26.505858,6.2741514 26.407683,5 27.957305,5 c 1.669892,0 4.420844,3.8719174 9.409151,13.243198 3.855786,7.243677 5.561368,9.160406 14.062181,17.747131 9.283364,9.377186 4.269682,22.346072 11.672513,8.404401 0.304017,-0.572549 0.384565,-1.17014 0.854579,-1.17014 0.470022,0 0.628573,-0.353523 0.352335,-0.785601 -0.276239,-0.432086 0.06335,-0.995431 0.754701,-1.251887 0.691323,-0.256448 1.054456,-0.783011 0.806961,-1.17014 -0.247495,-0.387122 0.117727,-0.914457 0.8116,-1.171857 0.693873,-0.2574 1.261586,-0.919449 1.261586,-1.471218 0,-0.551768 0.585595,-1.220448 1.30132,-1.485953 1.048976,-0.389134 1.109595,-0.706071 0.312601,-1.634421 -1.439827,-1.677124 0.367393,-2.128236 5.101143,-1.273316 3.273209,0.59114 3.804439,0.521391 3.41926,-0.448967 -0.732074,-1.844227 0.247875,-2.569418 2.402128,-1.777639 1.956096,0.718943 2.856252,-0.180271 1.181874,-1.18064 -1.303152,-0.77858 -0.92497,-2.730328 0.529051,-2.730328 0.734802,0 2.550463,0.89547 4.034803,1.989933 3.065108,2.260033 3.160848,2.149377 1.488348,-1.720208 -2.209247,-5.111431 -0.97456,-6.44628 3.09808,-3.34941 l 2.10528,1.600885 -1.1895,-3.259146 c -2.0904,-5.727588 -1.16243,-7.813441 2.17655,-4.892318 1.395514,1.220878 1.475724,1.174946 1.475724,-0.845107 0,-5.533906 4.20385,1.776859 6.924066,12.041432 1.32144,4.986344 1.22517,6.154417 -1.28542,15.596 -0.85566,3.217886 -1.734336,6.728307 -1.952606,7.800936 -0.21828,1.072629 -3.63415,5.172778 -7.590824,9.11144 -8.474595,8.43601 -10.917837,12.609239 -10.138942,17.318005 0.454221,2.74596 0.818209,3.21411 2.498978,3.21411 2.074615,0 4.683864,1.09078 6.702974,2.80211 3.97377,3.36805 4.855614,4.34606 4.46692,4.95404 -0.23855,0.37313 -1.17758,0.49036 -2.08675,0.26052 -0.90917,-0.22984 -2.99683,0.15313 -4.63923,0.85103 -1.6424,0.6979 -8.251597,2.19131 -14.687106,3.31868 -10.083704,1.76646 -14.210411,2.07075 -29.857534,2.201529 -9.986135,0.0835 -19.246006,-0.0943 -20.577491,-0.394989 z"
     id="path3042"
     inkscape:connector-curvature="0"
     sodipodi:nodetypes="sssssssssssssscscsscsssssscsssscsssssssssscssssssssssssssssssssscssssssssssssssss" />
</svg>
