<?xml version="1.0" encoding="UTF-8" standalone="no"?>
<!-- Created with Inkscape (http://www.inkscape.org/) -->

<svg
   xmlns:dc="http://purl.org/dc/elements/1.1/"
   xmlns:cc="http://creativecommons.org/ns#"
   xmlns:rdf="http://www.w3.org/1999/02/22-rdf-syntax-ns#"
   xmlns:svg="http://www.w3.org/2000/svg"
   xmlns="http://www.w3.org/2000/svg"
   xmlns:sodipodi="http://sodipodi.sourceforge.net/DTD/sodipodi-0.dtd"
   xmlns:inkscape="http://www.inkscape.org/namespaces/inkscape"
   id="svg2"
   version="1.1"
   inkscape:version="0.48.2 r9819"
   width="450"
   height="470"
   sodipodi:docname="hawks_silouhettessvg.svg">
  <metadata
     id="metadata8">
    <rdf:RDF>
      <cc:Work
         rdf:about="">
        <dc:format>image/svg+xml</dc:format>
        <dc:type
           rdf:resource="http://purl.org/dc/dcmitype/StillImage" />
      </cc:Work>
    </rdf:RDF>
  </metadata>
  <defs
     id="defs6" />
  <sodipodi:namedview
     pagecolor="#ffffff"
     bordercolor="#666666"
     borderopacity="1"
     objecttolerance="10"
     gridtolerance="10"
     guidetolerance="10"
     inkscape:pageopacity="0"
     inkscape:pageshadow="2"
     inkscape:window-width="1680"
     inkscape:window-height="1002"
     id="namedview4"
     showgrid="false"
     inkscape:zoom="0.662588"
     inkscape:cx="81.482361"
     inkscape:cy="179.52709"
     inkscape:window-x="0"
     inkscape:window-y="25"
     inkscape:window-maximized="1"
     inkscape:current-layer="svg2" />
  <path
     style="fill:#000000"
     d="m 410.57731,456.67093 c -3.49645,-1.65409 -7.58848,-3.88421 -9.09341,-4.95581 -1.90974,-1.35985 -3.05315,-1.63144 -3.78546,-0.89913 -1.39649,1.39649 -4.29748,-0.19635 -11.26395,-6.18468 -4.94553,-4.25113 -14.56745,-9.95137 -16.79778,-9.95137 -0.47534,0 -1.43974,1.07529 -2.14311,2.38954 -1.40821,2.63127 -4.94776,4.59565 -8.35616,4.63752 -1.21162,0.0149 -3.89045,1.59594 -5.95295,3.51346 -4.06925,3.7832 -4.43944,4.45948 -2.44113,4.45948 0.71988,0 2.12685,0.59812 3.12661,1.32917 1.46393,1.07045 1.60462,1.72739 0.7228,3.37508 -1.3171,2.46103 -5.15828,3.75843 -5.15828,1.74227 0,-2.05419 -7.14067,-3.8418 -11.65354,-2.91737 -4.92344,1.00854 -11.34524,1.17208 -11.34593,0.28894 -0.001,-1.64282 6.11376,-4.81809 9.27884,-4.81809 6.46436,0 9.81364,-1.25939 14.40563,-5.41678 l 4.57892,-4.14557 -2.00517,-3.96883 c -1.10284,-2.18285 -2.72675,-6.47705 -3.60868,-9.54266 -1.29136,-4.48876 -2.53473,-6.35904 -6.38704,-9.60736 -2.63094,-2.21844 -6.60902,-4.96482 -8.84018,-6.10308 -5.47289,-2.79206 -6.15863,-3.80853 -7.7766,-11.52719 -1.80698,-8.62037 -3.80708,-11.68853 -7.61961,-11.68853 -1.74694,0 -3.3234,0.70563 -3.9097,1.75 -0.92133,1.64115 -1.02814,1.63135 -1.71715,-0.15758 -0.74386,-1.93135 -0.50133,-2.20949 7.26261,-8.32901 3.40587,-2.68449 9.12426,-2.9556 15.42816,-0.73146 8.06881,2.84684 11.06913,0.87119 17.51295,-11.53195 4.65181,-8.95385 12.92436,-17.66059 19.89649,-20.94077 4.98785,-2.34663 19.5,-4.22166 19.5,-2.51948 0,0.44152 -0.68334,1.55785 -1.51853,2.48072 -1.40992,1.55795 -0.7484,1.71922 9.25,2.25503 11.0551,0.59243 32.56569,4.82911 37.58929,7.40351 2.29352,1.17534 2.59773,1.71427 1.62756,2.88326 -0.65627,0.79075 -2.43301,1.43773 -3.94832,1.43773 -1.51531,0 -3.36839,0.73896 -4.11796,1.64214 -1.18103,1.42305 -2.9651,1.55972 -13.37245,1.02437 -6.60527,-0.33977 -14.25959,-0.87657 -17.00959,-1.19289 -4.42142,-0.50858 -3.66743,-0.0668 6.5159,3.81782 14.67575,5.59833 28.10285,11.89855 29.82019,13.99214 0.73485,0.89585 1.04579,2.09852 0.69098,2.67262 -0.81382,1.31678 -6.97436,1.3495 -11.46744,0.0609 -1.88494,-0.54059 -3.57544,-0.83462 -3.75667,-0.6534 -0.18122,0.18123 1.71548,1.62212 4.2149,3.20199 5.90388,3.73181 5.6909,6.01847 -0.5188,5.57011 -2.46476,-0.17796 -5.27286,-0.74715 -6.24022,-1.26486 -2.62831,-1.40663 -2.12979,-0.0881 1.24116,3.28291 4.59011,4.59011 3.78654,7.43446 -1.31574,4.65724 -1.20134,-0.6539 -3.80974,-1.27889 -5.79645,-1.38887 -1.9867,-0.10998 -4.5742,-0.5053 -5.75,-0.87848 -1.80939,-0.57428 -2.13781,-0.27928 -2.13781,1.92026 0,2.9789 -0.64664,3.31883 -7.5,3.9426 -2.75,0.2503 -5.99127,0.75814 -7.20283,1.12854 l -2.20283,0.67345 2.08752,2.82352 c 3.2365,4.3776 1.53185,6.50568 -4.98814,6.22716 -0.71845,-0.0307 -2.32884,0.96676 -3.57864,2.21656 -1.94818,1.94818 -2.08572,2.52763 -0.96406,4.06159 0.71957,0.98407 2.06748,3.85322 2.99536,6.3759 0.92788,2.52267 2.62453,5.65387 3.77033,6.95821 2.75475,3.1359 21.4429,16.39022 29.33329,20.80424 6.63684,3.71277 7.7897,5.32423 3.80902,5.32423 -1.34254,0 -2.7191,0.45 -3.05902,1 -0.8834,1.42936 -1.30155,1.32884 -8.35718,-2.00901 z"
     id="path3056"
     inkscape:connector-curvature="0" />
  <path
     style="fill:#000000"
     d="m 117.96945,420.17014 c -2.40699,-3.93471 -6.4674,-14.85416 -11.25121,-30.25683 -3.73651,-12.03102 -12.388143,-30.75589 -14.210286,-30.75589 -0.515581,0 -0.607681,2.14738 -0.20471,4.77195 0.494427,3.22106 0.232186,4.77194 -0.807233,4.77194 -0.846833,0 -1.436456,1.07369 -1.310173,2.38597 0.409421,4.2538 -0.01548,4.53016 -3.379723,2.20001 -3.197456,-2.21441 -3.426675,-2.17307 -6.610846,1.19255 -2.013051,2.12776 -3.291105,5.00199 -3.279367,7.37531 0.02967,5.96824 -1.808341,7.29735 -10.090022,7.29735 -4.123749,0 -9.13174,0.71303 -11.128925,1.58449 -1.997185,0.87147 -6.469342,1.69238 -9.938069,1.82425 0,0 -5.528783,2.1944 -6.306941,0.23977 1.221028,-2.57285 7.831766,-7.49605 10.925246,-7.70207 1.353374,-0.0227 2.122358,-1.40308 2.980892,-1.46702 11.56622,-0.86146 0.27168,-1.3465 -0.893671,-1.45794 -0.928743,-0.0888 -2.123984,-0.0888 -2.656076,0 -1.766419,0.2948 -1.002011,-1.53212 1.663482,-3.97553 2.107344,-1.93188 4.132908,-2.26775 10.180446,-1.68814 7.091471,0.67968 7.68548,0.50445 9.78818,-2.88741 3.182881,-5.13458 1.863937,-11.29969 -5.105766,-23.8656 -3.220418,-5.80615 -6.223225,-12.66188 -6.672634,-15.23494 -0.560342,-3.20677 -2.977138,-6.8979 -7.683674,-11.73475 -8.61332,-8.85177 -13.106245,-18.13371 -15.633846,-32.29853 -1.087145,-6.0929 -3.087684,-13.57601 -4.445455,-16.62912 -3.315743,-7.45599 -11.580785,-15.59509 -15.836364,-15.59509 -2.479615,0 -8.0085589,2.63281 -8.0085589,0.60815 0,-3.38643 9.0447529,-11.51545 12.1357909,-11.51545 1.268896,0 4.584251,-1.22707 7.367257,-2.72683 2.783134,-1.49975 6.495656,-2.72682 8.250078,-2.72682 6.040572,0 14.065947,5.43824 20.399976,13.8238 3.959026,5.24132 8.49439,9.43842 12.627426,11.68572 11.694556,6.3586 25.169073,16.80322 29.183046,22.62076 5.49107,7.95835 9.49344,16.58707 16.87914,36.38882 6.54777,17.55533 18.10637,41.85345 26.95162,56.65687 4.40753,7.37646 7.98979,14.81905 5.80595,14.81905 -3.32515,0 -13.78489,-8.20488 -21.27701,-17.43694 l -5.66353,-6.97876 0.95054,10.72211 c 0.52281,5.89716 2.05562,14.9368 3.40617,20.08808 1.92819,7.3545 2.16054,10.27979 2.12676,11.39742 -0.1205,3.98654 -1.05764,0.44845 -2.25059,0.0482 -2.19713,-0.73706 -2.57985,-0.245 -2.57985,3.31665 0,1.76292 -0.2269,5.40663 -0.63767,6.01521 -0.74011,1.0965 -2.0771,-2.15083 -3.75928,-4.90077 z"
     id="path3054"
     inkscape:connector-curvature="0"
     sodipodi:nodetypes="csscsccscsssccscscscscscsssscsscssssscssscsscc" />
  <path
     style="fill:#000000"
     d="m 176.76546,457.39526 c 1.15162,-1.41124 3.08024,-2.49684 4.40453,-2.47916 2.81728,0.0377 10.45956,-6.52037 14.5449,-12.48125 3.11352,-4.5429 4.08099,-5.04439 4.97658,-2.57964 1.08021,2.97284 0.51823,5.31064 -1.62372,6.75453 -1.7734,1.19545 -1.98773,1.9118 -1.2632,4.22229 0.47991,1.53041 1.40397,2.97034 2.05347,3.19982 0.67807,0.23958 0.96202,-0.18516 0.66685,-0.99749 -0.3239,-0.89142 0.7785,-2.08127 2.98032,-3.21671 l 3.49436,-1.802 4.48496,2.06041 c 5.02805,2.30992 5.91961,6.37242 7.05325,4.51883 0.92058,-1.50522 0.99524,-1.08356 3.39617,-0.28644 1.30588,1.20217 1.17773,2.54539 1.72764,2.55523 1.73191,0.031 0.49252,-3.99602 -1.44765,-5.40734 -1.02118,-0.74283 -2.0108,-2.24879 -2.19915,-3.34656 -0.26506,-1.54497 -1.27508,-2.08094 -4.47003,-2.37206 -2.50459,-0.22822 -4.79969,-1.14599 -5.83686,-2.33409 -1.63493,-1.87281 -1.60543,-2.03904 0.67807,-3.82146 1.31304,-1.02491 3.07268,-1.61395 3.91032,-1.30898 1.24968,0.455 1.22468,0.22592 -0.13931,-1.27654 -0.94275,-1.03845 -3.22504,-1.91331 -5.27253,-2.0211 -5.39304,-0.2839 -5.84482,-2.15882 -2.12974,-8.83847 2.2273,-4.00465 4.22005,-6.21467 6.5584,-7.27349 4.49493,-2.03532 6.54521,-5.60684 11.00718,-19.17409 3.92329,-11.9293 5.58179,-25.60805 3.95446,-32.61497 -0.92126,-3.96672 1.07195,-5.25497 8.72941,-5.64197 3.85932,-0.19505 8.03851,-0.36063 8.31065,-1.58421 0.42326,-1.90305 -0.91438,-2.58156 -5.39584,-4.88001 -2.32386,-0.76752 -3.49272,-2.00794 -4.08574,-3.16529 -1.88421,-3.67725 -6.69699,-5.02103 -16.19325,-4.52133 -8.10123,0.4263 -8.76846,0.63858 -11.94441,3.8002 -2.44467,2.43363 -3.3942,4.29024 -3.47485,6.79437 -0.0611,1.89513 0.2475,3.45211 0.68565,3.45995 2.084,0.0373 0.38448,3.14021 -2.50196,4.56802 -5.4135,2.67785 -23.63797,16.67652 -28.49351,21.88659 -4.3314,4.64772 -19.20672,28.96711 -19.25156,31.47411 -0.0274,1.53406 1.22428,1.52759 2.94784,-0.0152 1.12499,-1.00699 1.23588,-0.87114 0.62139,0.76123 -2.17547,5.77873 -4.87396,16.28431 -4.92567,19.17628 -0.0378,2.11398 -0.92934,5.4502 0.12658,5.90964 0.73208,0.31854 3.23304,-1.72547 4.16046,-2.46756 1.0787,-0.86307 1.31035,-0.24306 1.18099,3.15974 -0.13365,3.5027 -0.70691,5.41446 0.74511,5.19727 1.04075,-0.15568 2.59268,-0.8606 2.57631,0.0548 -0.0152,0.84897 0.42232,1.55164 0.97223,1.56147 0.54991,0.01 0.97168,1.59263 0.93726,3.51733 -0.0381,2.12919 -0.68822,5.40609 0.0971,5.51479 0.78222,0.10828 2.99604,-2.94378 4.91395,-4.79435 l 2.92004,-2.81751 0.2583,2.54718 c 0.35489,3.49919 2.13094,3.81958 4.57428,0.82515 z"
     id="path3050"
     inkscape:connector-curvature="0"
     sodipodi:nodetypes="ccssssssscsscsscsssssssssssscssscssscscssccsccssscccc" />
  <path
     style="fill:#000000"
     d="m 313.83023,353.45793 c -1.55913,-1.22642 -3.82684,-2.09985 -5.03935,-1.94095 -1.21251,0.15889 -2.49985,-0.1889 -2.86076,-0.77286 -0.45346,-0.73373 -1.24827,-0.74489 -2.57259,-0.0361 -1.49545,0.80035 -2.36073,0.58129 -3.93931,-0.99729 -1.11261,-1.11265 -2.69792,-2.02296 -3.52292,-2.02296 -0.9875,0 -1.5,-0.98795 -1.5,-2.89159 0,-2.2728 -0.55102,-3.02989 -2.57488,-3.53785 -1.99506,-0.50073 -3.35399,0.0378 -6.0348,2.39159 -3.4599,3.03784 -5.39032,3.8115 -5.39032,2.16029 0,-0.48265 0.675,-1.43775 1.5,-2.12244 2.52155,-2.0927 1.7034,-2.74537 -3,-2.39325 -4.85999,0.36384 -5.02266,0.23837 -3.46482,-2.67249 0.84324,-1.5756 0.70417,-1.93679 -0.75,-1.94791 -0.98185,-0.008 -2.7543,-0.27365 -3.93878,-0.59143 -1.62265,-0.43532 -2.32597,-0.0346 -2.85277,1.62517 -0.6285,1.9802 -0.32626,2.48784 -1.70565,1.10845 -0.29346,-1.11228 -0.28978,-2.5767 -0.80194,-2.71472 -3.43878,-0.92667 -3.9425,0.27441 -4.65669,1.81055 -0.45468,1.02613 -2.07982,-0.97625 -3.06343,-1.50266 -1.07536,-0.57551 -2.82443,0.50543 -3.45653,0.89609 -0.76182,0.47083 -0.93531,0.15274 -0.51463,-0.94356 0.45778,-1.19295 2.85226,-3.14646 1.0744,-3.59266 -1.35558,-0.34024 -5.36916,0.30896 -5.36916,-0.17094 0,-1.63753 4.49289,-2.00253 8.5,-0.69052 2.33795,0.7655 6.18838,1.09574 9.26672,0.79478 4.58805,-0.44855 5.51335,-0.92212 7.18069,-3.67511 1.09287,-1.80446 3.40427,-3.69911 5.38778,-4.41635 l 3.4738,-1.25615 -1.58971,-3.33364 c -1.3397,-2.80939 -2.15032,-3.35228 -5.15449,-3.45212 -8.26637,-0.27473 -9.62266,-0.41964 -10.74569,-1.14813 -0.6495,-0.42131 -1.48609,-0.27222 -1.8591,0.33132 -0.373,0.60353 -1.70718,0.83907 -2.96484,0.52342 -1.50179,-0.37692 -2.48105,-0.0673 -2.85305,0.90212 -0.31152,0.81181 -1.20037,1.23275 -1.97521,0.93541 -0.77485,-0.29734 -1.67776,0.16025 -2.00647,1.01686 -0.32871,0.85661 -1.41178,1.55747 -2.4068,1.55747 -0.99503,0 -2.57975,0.9 -3.5216,2 -2.09934,2.45185 -3.33741,2.52756 -4.59468,0.28096 -0.87636,-1.56598 -1.13349,-1.50729 -2.88773,0.6591 -2.00558,2.47678 -4.24962,2.14203 -4.24962,-0.63394 0,-1.08707 -0.6515,-0.7476 -2.1005,1.09451 -1.26086,1.60293 -2.75985,2.4799 -3.75,2.1939 -1.19996,-0.3466 -2.33082,0.93823 -4.1495,4.71451 -2.90116,6.02392 -6.26636,7.22294 -6.81757,2.4291 -0.31144,-2.70856 -0.37897,-2.67115 -3.5,1.93867 -1.75034,2.58529 -3.74493,4.87812 -4.43243,5.09519 -1.55911,0.49226 -1.67786,-4.49312 -0.20145,-8.4569 0.83903,-2.25257 0.12415,-1.76602 -3.57754,2.4349 -2.71307,3.07896 -5.46274,5.25 -6.64925,5.25 -1.78105,0 -1.97162,-0.50857 -1.59255,-4.25 0.23683,-2.3375 0.8042,-5.15 1.26082,-6.25 0.79818,-1.9228 0.7372,-1.91797 -1.5799,0.12504 -5.74014,5.06113 -9.32093,5.62725 -8.69682,1.37496 0.5116,-3.48577 0.48162,-3.50144 -2.70452,-1.4138 -4.56663,2.99216 -6.18764,-1.41974 -2.45015,-6.66856 l 2.05865,-2.8911 -3.05865,0.61173 c -2.71226,0.54245 -3.05864,0.34754 -3.05864,-1.72111 0,-1.34106 1.57426,-3.94503 3.70295,-6.125 3.3734,-3.45467 3.50689,-3.79216 1.5,-3.79216 -3.17049,0 -2.71582,-2.34251 1.10597,-5.69808 8.27707,-7.26738 39.77554,-19.30192 50.51962,-19.30192 3.18013,0 12.00055,1.52884 19.65203,3.40628 9.66434,2.37133 14.56619,3.14624 16.13329,2.55043 1.23807,-0.47071 3.52309,-0.49103 5.07782,-0.0451 3.48947,1.00077 6.41163,-0.0268 11.12548,-3.91238 4.26007,-3.51152 6.43397,-3.74806 9.18284,-0.99919 1.1,1.1 2.675,2 3.5,2 0.825,0 1.3875,0.55182 1.25,1.22626 -0.48712,2.38934 3.95442,1.82248 9.81286,-1.25238 8.99019,-4.7186 24.30185,-15.31563 30.12301,-20.84779 4.12537,-3.92056 7.29511,-5.74033 15.5,-8.89866 13.72525,-5.28328 23.48066,-6.62943 43.39996,-5.98876 16.88674,0.54314 30.12282,2.83854 31.10342,5.39395 0.3042,0.79274 1.9385,2.15776 3.6317,3.03337 3.0147,1.55896 3.0377,1.62567 1.1058,3.21301 -1.888,1.55138 -1.8966,1.69616 -0.1998,3.371 2.3693,2.33851 2.2378,3.75 -0.3494,3.75 -1.8188,0 -1.9353,0.22546 -0.8143,1.57622 1.9125,2.30447 -0.5667,3.51885 -5.5622,2.72447 l -3.9989,-0.63592 3.9197,3.6968 c 4.8944,4.61601 3.9023,6.42933 -2.3408,4.27839 -4.1058,-1.41457 -4.1766,-1.40297 -2.5312,0.41516 0.9368,1.03508 1.4156,2.59248 1.0723,3.48727 -0.743,1.93602 -3.8694,1.43509 -13.49121,-2.16159 -7.60713,-2.8436 -7.29149,-2.81485 -6.92478,-0.6308 0.22,1.31022 -0.49725,1.82684 -2.85411,2.05575 -2.11924,0.20583 -3.31409,0.9411 -3.65638,2.25 -0.29933,1.14462 -1.36944,1.94421 -2.60205,1.94421 -1.15149,0 -2.09362,0.45 -2.09362,1 0,0.55 -0.675,1 -1.5,1 -0.825,0 -1.5,0.45 -1.5,1 0,0.55 -0.68912,1 -1.53138,1 -0.84227,0 -1.79041,0.675 -2.10699,1.5 -0.31659,0.825 -1.20246,1.5 -1.96862,1.5 -0.76615,0 -1.39301,0.45 -1.39301,1 0,1.53371 -3.81292,5 -5.5,5 -0.825,0 -1.5,0.45 -1.5,1 0,0.55 -0.4539,1 -1.00866,1 -0.55476,0 -2.87228,1.35 -5.15004,3 -2.27776,1.65 -4.556,3 -5.06277,3 -1.26251,0 -3.77853,2.61593 -3.77853,3.92857 0,0.58929 -0.41536,1.07143 -0.92302,1.07143 -0.50767,0 -2.68747,1.8 -4.84401,4 -2.15654,2.2 -4.77868,4.00689 -5.82698,4.01531 -1.04829,0.008 -2.5659,0.43268 -3.37245,0.9428 -0.94998,0.60083 -1.9758,0.50738 -2.91262,-0.26531 -1.12501,-0.92792 -1.53959,-0.91521 -1.86687,0.0572 -0.2314,0.6875 -1.25666,1.25 -2.27837,1.25 -1.0217,0 -2.13576,0.45 -2.47568,1 -0.7496,1.21288 -5.17641,1.3326 -5.90136,0.1596 -0.28567,-0.46222 -2.22473,-0.75862 -4.30902,-0.65867 -3.65506,0.17527 -7.88047,-1.43398 -11.53962,-4.39486 -2.70455,-2.18844 -2.33623,1.06337 0.39518,3.48894 1.17985,1.04775 2.9894,3.79147 4.02122,6.09718 1.51098,3.37641 3.38001,5.12073 9.60482,8.96388 4.25083,2.62444 8.05939,5.23796 8.46347,5.80782 1.38372,1.95143 0.76582,4.72322 -1.16552,5.22827 -1.06195,0.27771 -2.17283,1.13558 -2.46861,1.90638 -0.29578,0.7708 -1.37691,1.40146 -2.40251,1.40146 -1.02559,0 -2.19003,0.32531 -2.58763,0.72291 -1.39863,1.39864 -8.03904,1.19917 -9.68559,-0.29094 -1.44855,-1.31092 -1.78451,-1.30597 -2.90389,0.0428 -1.66601,2.00742 -2.22841,1.93648 -5.58601,-0.70461 z"
     id="path3048"
     inkscape:connector-curvature="0" />
  <path
     style="fill:#000000"
     d="m 225.59794,170.88984 c 0,-1.61098 -0.4333,-2.0594 -1.5689,-1.62363 -1.1832,0.45406 -1.4905,0.0502 -1.25,-1.64301 0.2579,-1.81511 1.1367,-2.35419 4.5888,-2.81493 2.3484,-0.31343 4.777,-1.07695 5.3967,-1.69671 2.068,-2.068 5.0563,-22.23342 3.2948,-22.23342 -0.2962,0 -2.4337,1.83644 -4.75,4.08098 -2.3162,2.24454 -5.4355,4.7242 -6.9317,5.51035 -2.3887,1.25512 -4.7797,4.17792 -4.7797,5.84293 0,0.31116 1.1392,0.56574 2.5314,0.56574 2.4488,0 4.4033,2.39867 3.054,3.74796 -0.3639,0.36394 -2.107,0.11014 -3.8735,-0.56398 -2.8624,-1.09234 -3.3937,-1.00437 -4.883,0.80854 -0.9191,1.11883 -1.8973,2.59072 -2.1739,3.27086 -0.3919,0.96407 -0.705,0.94949 -1.4205,-0.0662 -0.5047,-0.71653 -1.5408,-1.16653 -2.3024,-1 -0.7853,0.17173 -1.5304,-0.64995 -1.7215,-1.89836 -0.2698,-1.76334 0.6217,-2.68687 4.4821,-4.64309 6.3771,-3.23153 9.0341,-7.94579 9.4758,-16.8126 l 0.3315,-6.65681 -5.5,-6.41902 c -3.9478,-4.60756 -7.132,-7.18852 -11.2833,-9.14581 -5.322,-2.50925 -6.0799,-2.6233 -9.5,-1.42947 -2.0442,0.71353 -4.0354,1.74596 -4.425,2.2943 -0.4555,0.64113 -1.148,0.55738 -1.94,-0.23466 -0.9755,-0.9755 -0.8802,-1.96861 0.4584,-4.77557 0.9295,-1.94917 1.6899,-4.39602 1.6899,-5.43744 0,-3.66639 4.6557,-6.03736 11.8849,-6.05252 l 6.6151,-0.0139 -4.2768,-2.189426 c -2.3522,-1.20418 -6.3205,-4.34794 -8.8183,-6.98613 -2.4978,-2.63818 -4.894,-4.7967 -5.3249,-4.7967 -0.4308,0 -2.1432,-1.2375 -3.8052,-2.75 -1.6621,-1.5125 -4.2511,-3.65 -5.7533,-4.75 -1.5023,-1.1 -4.1466,-3.34439 -5.8764,-4.98752 -1.7298,-1.64314 -5.0576,-4.22073 -7.3951,-5.72798 -2.3375,-1.50725 -4.25,-3.14411 -4.25,-3.63748 0,-0.49336 -1.2375,-1.154 -2.75,-1.46809 -1.5125,-0.31409 -5.225,-2.12737 -8.25,-4.02952 -3.02495,-1.90215 -8.76245,-5.13004 -12.74995,-7.17308 -3.9875,-2.04305 -7.25,-4.31867 -7.25,-5.05694 0,-0.73826 -1.6875,-1.80953 -3.75,-2.38058 -9.89523,-2.73974 -7.96576,-4.67915 3.29652,-3.31348 7.03283,0.8528 10.44286,1.95108 19.04799,6.13484 5.76484,2.80285 12.55564,6.52309 15.09064,8.26721 2.535,1.74411 7.9174,5.01645 11.961,7.27187 7.2436,4.04024 13.7423,8.7913 37.8483,27.67008 13.8078,10.813626 16.4485,12.188416 22.5595,11.744896 4.0106,-0.29108 4.398,-0.57206 5.2588,-3.814226 0.6704,-2.52515 0.4361,-6.04569 -0.8411,-12.63975 -1.6719,-8.63209 -1.6764,-9.51314 -0.082,-15.86188 3.6018,-14.33856 14.0444,-35.39935 21.5204,-43.40244 3.4896,-3.735609 7.0824,-4.163369 7.1049,-0.84593 0.01,1.2375 0.4172,2.88481 0.9084,3.66069 0.4911,0.77589 0.5603,2.30993 0.1538,3.40899 -0.9302,2.51455 0.8545,6.42926 3.2121,7.0458 1.3715,0.35865 1.6386,1.07244 1.1419,3.05134 -0.4346,1.73178 -0.2418,2.58318 0.5851,2.58318 0.8371,0 1.0406,0.96389 0.6334,3 -0.5046,2.52321 -0.2861,3 1.375,3 1.3084,0 1.975,0.67511 1.975,2 0,1.1 0.6199,2 1.3776,2 2.3064,0 3.9088,2.66587 2.7968,4.65296 -0.7683,1.37288 -0.512,2.00428 1.171,2.88411 2.199,1.14964 2.3165,1.64313 1.1217,4.71293 -0.476,1.22322 -0.1973,1.75 0.9259,1.75 1.9076,0 2.1285,3.04723 0.357,4.925 -1,1.06 -1,1.41667 0,1.78333 1.7763,0.65129 1.5468,3.30622 -0.4792,5.54492 -1.6389,1.81098 -1.6389,1.96125 0,2.87843 2.1458,1.20082 2.2396,4.19986 0.1848,5.90522 -1.0449,0.86717 -1.3474,2.17929 -0.9351,4.05647 0.5047,2.29783 0.156,3.01227 -2.0291,4.157146 -2.3435,1.22789 -2.4626,1.52849 -1.0649,2.68842 1.6508,1.37009 2.1546,4.06106 0.7602,4.06106 -0.4474,0 -1.4314,1.575 -2.1867,3.5 -0.8224,2.09603 -2.0577,3.5 -3.0796,3.5 -0.9385,0 -1.9366,0.59984 -2.2179,1.33297 -0.3857,1.00512 -1.8263,1.16297 -5.857,0.64179 -5.6206,-0.72675 -9.8455,0.40367 -9.8455,2.63424 0,1.5766 4.3373,6.39101 5.7577,6.39101 0.5656,0 1.2874,0.675 1.604,1.5 0.3165,0.825 1.2647,1.5 2.1069,1.5 0.8423,0 1.5314,0.45 1.5314,1 0,0.55 0.9322,1 2.0715,1 1.1392,0 2.7464,0.675 3.5714,1.5 0.825,0.825 2.5068,1.5 3.7374,1.5 1.2306,0 3.1104,0.63833 4.1774,1.41851 1.8622,1.36164 1.8262,1.44705 -0.8981,2.13079 -4.1407,1.03926 -13.2792,-0.0355 -20.1592,-2.3709 -4.9396,-1.6767 -6.2647,-1.80899 -7.5,-0.7487 -0.8252,0.70831 -4.0711,2.44383 -7.2132,3.85671 -4.2029,1.88993 -5.8796,3.23371 -6.3441,5.08438 -0.3473,1.38354 -0.372,2.93521 -0.055,3.44816 0.9211,1.4904 -5.2101,12.83439 -7.8835,14.58608 -1.3388,0.87723 -2.9535,2.56522 -3.5882,3.75109 -0.9807,1.83242 -0.8124,2.41375 1.1209,3.87204 1.5777,1.19001 2.0614,2.27215 1.5784,3.5308 -0.6378,1.66214 -0.9167,1.59459 -3.3139,-0.80257 l -2.6174,-2.61746 -3.3422,2.54922 -3.3422,2.54922 0,-2.22568 z"
     id="path3044"
     inkscape:connector-curvature="0" />
  <path
     style="fill:#000000"
     d="m 28.093905,99.656185 c -1.331484,-0.3007 -3.8918,-0.58827 -5.689587,-0.63903 -1.797787,-0.0508 -4.186236,-0.51089 -5.307669,-1.0225 -1.92356,-0.87755 -1.974995,-1.05417 -0.908734,-3.12037 1.028245,-1.99255 1.543578,-2.19916 5.711149,-2.28973 9.033914,-0.19634 14.667926,-1.63578 14.667926,-3.74752 0,-0.79566 -0.544699,-1.64872 -1.210441,-1.89569 -0.665742,-0.24696 -1.210441,-0.99136 -1.210441,-1.65422 0,-1.51522 -1.695827,-4.49559 -3.026101,-5.3183 -0.554786,-0.343106 -1.008701,-1.308472 -1.008701,-2.145255 0,-0.836783 -0.334969,-1.521425 -0.74438,-1.521425 -0.88873,0 -2.233013,-3.800234 -2.966443,-8.386006 -0.291644,-1.823469 -0.889303,-3.315398 -1.328152,-3.315398 -0.438841,0 -0.622699,-0.885984 -0.408564,-1.968855 0.214135,-1.082864 0.05011,-2.1715 -0.364424,-2.419188 -0.414559,-0.24768 -0.535127,-1.001086 -0.267927,-1.674221 0.267209,-0.673143 0.04083,-1.489776 -0.503131,-1.814748 -0.543924,-0.324979 -1.030295,-2.010722 -1.080827,-3.746111 -0.05052,-1.735389 -0.31904,-3.374857 -0.596691,-3.643264 -0.277659,-0.268414 -0.331757,-0.924021 -0.120221,-1.45691 0.211529,-0.53289 -0.172625,-1.415956 -0.853675,-1.962357 -0.681059,-0.546409 -1.022096,-1.33162 -0.757865,-1.744921 0.264231,-0.413294 -0.28447,-1.440319 -1.219325,-2.282274 -0.934856,-0.841963 -1.699741,-1.791235 -1.699741,-2.109513 0,-0.318271 -1.122587,-0.988293 -2.49463,-1.488942 -1.406241,-0.51313 -2.264097,-1.270843 -1.966247,-1.736722 0.290602,-0.454553 -0.05019,-1.041074 -0.757268,-1.303381 -0.82494,-0.306015 -1.112952,-1.002888 -0.803733,-1.944719 0.266346,-0.811227 0.09661,-1.467808 -0.379425,-1.467808 -0.473742,0 -0.8613409,-0.351042 -0.8613409,-0.780094 0,-0.429051 1.5433119,-0.79561 3.4295819,-0.814574 l 3.429581,-0.03448 -3.026101,-1.544351 c -1.664356,-0.84939 -3.026102,-1.887 -3.026102,-2.305801 0,-1.001087 3.65746,-0.962355 7.540053,0.07985 4.577354,1.228702 4.48674,0.322351 -0.197173,-1.972139 -2.263274,-1.1087 -4.115038,-2.360946 -4.115038,-2.782773 0,-0.996391 2.544144,-0.979619 5.304627,0.03495 3.50178,1.287045 3.164552,0.318886 -0.80964,-2.324391 -7.4366,-4.946168 -2.83239,-4.959414 6.197238,-0.01786 6.069666,3.321709 6.990432,3.000591 2.420882,-0.844272 -8.696887,-7.31763 -6.331831,-10.8442304 2.877362,-4.290515 l 4.870571,3.466136 -1.536234,-3.271113 c -1.85375,-3.947133 -1.951925,-5.2212844 -0.402303,-5.2212844 1.669892,0 4.420844,3.8719174 9.409151,13.2431984 3.855786,7.243677 5.561368,9.160406 14.062181,17.747131 9.283364,9.377186 4.269682,22.346072 11.672513,8.404401 0.304017,-0.572549 0.384565,-1.17014 0.854579,-1.17014 0.470022,0 0.628573,-0.353523 0.352335,-0.785601 -0.276239,-0.432086 0.06335,-0.995431 0.754701,-1.251887 0.691323,-0.256448 1.054456,-0.783011 0.806961,-1.17014 -0.247495,-0.387122 0.117727,-0.914457 0.8116,-1.171857 0.693873,-0.2574 1.261586,-0.919449 1.261586,-1.471218 0,-0.551768 0.585595,-1.220448 1.30132,-1.485953 1.048976,-0.389134 1.109595,-0.706071 0.312601,-1.634421 -1.439827,-1.677124 0.367393,-2.128236 5.101143,-1.273316 3.273209,0.59114 3.804439,0.521391 3.41926,-0.448967 -0.732074,-1.844227 0.247875,-2.569418 2.402128,-1.777639 1.956096,0.718943 2.856252,-0.180271 1.181874,-1.18064 -1.303152,-0.77858 -0.92497,-2.730328 0.529051,-2.730328 0.734802,0 2.550463,0.89547 4.034803,1.989933 3.065108,2.260033 3.160848,2.149377 1.488348,-1.720208 -2.209247,-5.111431 -0.97456,-6.44628 3.09808,-3.34941 l 2.10528,1.600885 -1.1895,-3.259146 c -2.0904,-5.727588 -1.16243,-7.813441 2.17655,-4.892318 1.395514,1.220878 1.475724,1.174946 1.475724,-0.845107 0,-5.533906 4.20385,1.776859 6.92407,12.041432 1.32144,4.986344 1.22517,6.154417 -1.28542,15.596 -0.85566,3.217886 -1.73434,6.728307 -1.95261,7.800936 -0.21828,1.072629 -3.63415,5.172778 -7.590824,9.11144 -8.474595,8.43601 -10.917837,12.609239 -10.138942,17.318005 0.454221,2.74596 0.818209,3.21411 2.498978,3.21411 2.074615,0 4.683864,1.09078 6.702974,2.80211 3.97377,3.36805 4.855614,4.34606 4.46692,4.95404 -0.23855,0.37313 -1.17758,0.49036 -2.08675,0.26052 -0.90917,-0.22984 -2.99683,0.15313 -4.63923,0.85103 -1.6424,0.6979 -8.251597,2.19131 -14.687106,3.31868 -10.083704,1.76646 -14.210411,2.07075 -29.857534,2.201529 -9.986135,0.0835 -19.246006,-0.0943 -20.577491,-0.394989 z"
     id="path3042"
     inkscape:connector-curvature="0"
     sodipodi:nodetypes="sssssssssssssscscsscsssssscsssscsssssssssscssssssssssssssssssssscssssssssssssssss" />
  <path
     style="fill:#000000"
     d="m 391.8785,170.08845 c 2.69639,-8.9546 -0.43004,-1.44798 -0.95564,-1.44798 -0.52673,0 -0.30232,-1.85172 0.5,-4.12573 0.8006,-2.26915 1.45564,-5.23165 1.45564,-6.58333 0,-3.39705 -2.35705,-2.39614 -3.04148,1.29156 -0.53827,2.90019 -0.54883,2.90421 -1.78035,0.67653 -1.0126,-1.83168 -0.95937,-2.78147 0.29148,-5.20034 1.78089,-3.44386 1.95973,-8.97227 0.46445,-14.35693 -0.91706,-3.30242 -1.34059,-3.70371 -3.24442,-3.07406 -3.1581,1.04447 -9.63644,0.66137 -11.23379,-0.66431 -1.78742,-1.48343 -2.90629,-0.70445 -4.49411,3.12888 -1.09572,2.6453 -1.04977,3.93775 0.29408,8.27146 0.87599,2.82495 2.05485,8.51127 2.61968,12.63627 0.84108,6.14242 0.77097,7.75836 -0.38734,8.92735 -1.1703,1.18108 -1.8914,1.20997 -4.17946,0.16746 -0.70513,-0.32128 -2.29257,-1.54892 -2.62748,-1.76238 -0.82832,-0.52794 0.50157,0.14475 1.59325,-0.46618 1.45215,-0.81266 1.62939,-1.88651 1.10052,-6.66746 -0.7045,-6.36869 -1.74421,-8.22961 -3.57503,-6.39879 -0.83953,0.83953 -1.57259,1.01636 -2.0661,1.13645 -2.51448,0.61184 -0.7339,-0.52949 -0.7339,-1.36387 0,-0.78508 1.16732,-2.34563 2.59404,-3.46789 3.34582,-2.63183 2.74456,-4.18734 -2.15279,-5.56942 -3.93246,-1.10978 -3.94125,-1.12373 -3.94125,-6.2489 l 0,-5.13664 -4.71862,0.56071 c -3.43129,0.40774 -5.39962,0.11449 -7.21481,-1.07487 -1.37291,-0.89956 -4.23704,-1.63557 -6.36472,-1.63557 -2.12768,0 -4.20592,-0.3375 -4.61831,-0.75 -0.41238,-0.4125 -3.5292,-0.81714 -6.92626,-0.8992 -6.44083,-0.15558 -16.65728,-3.73216 -16.65728,-5.83139 0,-0.6082 -1.42432,-1.53638 -3.16515,-2.06261 -3.15538,-0.95384 -5.81851,-3.80648 -4.64715,-4.97783 0.33933,-0.33933 4.26293,-0.0839 8.71912,0.56773 9.33587,1.36509 32.67811,0.77185 38.31792,-0.97384 3.9979,-1.23747 11.8533,-6.76872 12.53008,-8.82286 0.25366,-0.7699 -0.52084,-1.25 -2.0165,-1.25 -2.42616,0 -5.73832,-2.71983 -5.73832,-4.71211 0,-0.58004 -0.9,-1.28998 -2,-1.57764 -1.536,-0.401665 -2,-1.364005 -2,-4.148015 0,-2.29973 -0.54839,-3.835441 -1.5,-4.200601 -0.83641,-0.32096 -1.5,-1.8075 -1.5,-3.36021 0,-2.13625 -0.58208,-2.9307 -2.5,-3.41206 -1.78482,-0.44796 -2.5,-1.30383 -2.5,-2.99178 0,-1.55151 -0.71307,-2.55079 -2.07421,-2.90674 -1.14082,-0.29833 -2.31016,-1.44468 -2.59854,-2.54745 -0.28839,-1.10277 -1.15499,-2.24705 -1.92579,-2.54283 -0.7708,-0.29578 -1.4112,-1.11441 -1.4231,-1.81918 -0.0119,-0.70476 -1.47441,-1.95638 -3.25,-2.78138 -1.96272,-0.91194 -3.23045,-2.23994 -3.23369,-3.38742 -0.003,-1.04321 -1.01585,-2.26123 -2.26455,-2.72316 -1.24257,-0.45965 -2.66819,-1.91144 -3.16806,-3.22619 -0.49987,-1.31475 -1.61832,-2.66271 -2.48546,-2.99546 -0.92413,-0.35462 -1.5766,-1.7821 -1.5766,-3.44929 0,-1.89436 -1.04538,-3.82523 -3.13006,-5.78139 -1.72153,-1.615401 -5.51036,-6.087091 -8.41962,-9.937091 -2.90925,-3.85 -7.34405,-9.7 -9.85509,-13 -4.41748,-5.80543 -4.56246,-6.2189 -4.47052,-12.75 0.0523,-3.7125004 0.43578,-6.7500004 0.85227,-6.7500004 0.41648,0 1.94168,1.7898 3.38933,3.97734 3.62241,5.4738304 14.28695,14.1086604 25.63369,20.7549804 5.225,3.06053 16.42215,9.86149 24.88255,15.11324 17.31792,10.750021 19.74961,13.227311 27.992,28.516891 2.81209,5.21641 7.27248,11.83304 9.91199,14.70363 l 4.79911,5.219241 9.68351,-6.392661 c 9.55492,-6.30778 11.20141,-7.89266 8.19946,-7.89266 -2.02914,0 -2.98276,-2.67558 -1.56324,-4.38599 0.62102,-0.74828 0.87588,-2.02045 0.56636,-2.82705 -0.30952,-0.80659 0.11257,-2.027 0.93797,-2.71202 1.17843,-0.97802 1.25482,-1.63926 0.35567,-3.07902 -0.88153,-1.41154 -0.83494,-2.20717 0.2024,-3.4571 1.02062,-1.22976 1.06666,-1.90438 0.18984,-2.7812 -1.61852,-1.61852 -1.44195,-4.27675 0.38476,-5.79279 1.07006,-0.88808 1.22318,-1.59927 0.5,-2.32245 -1.53012,-1.53012 -1.27225,-2.64238 0.61261,-2.64238 1.49879,0 1.48734,-0.18525 -0.12128,-1.96276 -2.79488,-3.088301 -1.27812,-5.243931 3.44957,-4.902581 2.96337,0.21396 4.33727,-0.19078 5.35028,-1.57616 0.86933,-1.18887 1.84175,-1.56819 2.68467,-1.04723 0.9533,0.58916 1.1471,0.36196 0.69538,-0.8152 -0.34444,-0.89761 -0.16017,-1.92008 0.4095,-2.27216 1.65891,-1.02527 9.04015,7.7168 13.26866,15.714911 2.14047,4.04865 5.25297,8.80998 6.91666,10.58074 3.5511,3.77963 3.98129,8.19575 1.10824,11.37671 -1.05417,1.16715 -5.53423,4.94824 -9.95569,8.40244 -12.914,10.08886 -17.42486,16.937406 -13.64537,20.716896 0.65142,0.65142 1.18439,2.4482 1.18439,3.99286 0,2.54834 -0.18333,2.69399 -1.97926,1.57241 -1.76341,-1.10127 -2.49951,-0.67901 -6.75,3.87217 -2.62391,2.80953 -5.70422,5.39219 -6.84514,5.73925 -2.14022,0.65103 -6.39971,9.24817 -10.41163,21.01425 -2.22937,6.53826 -2.50058,10.18336 -1.04296,14.01719 0.53405,1.40467 1.2647,5.42055 1.62365,8.92417 0,0 1.27974,4.3299 0.65265,6.37023 -0.27505,0.89491 -0.63796,1.81169 -1.41499,1.85764 -0.47243,0.0279 -0.30299,-2.58456 -0.30299,-2.58456 l -0.58094,-3.05938 c -0.0666,-0.35065 -1.35863,3.10093 -1.55515,3.31756 -1.55856,1.71816 -2.69054,2.1859 -2.39324,1.19858 z"
     id="path3040"
     inkscape:connector-curvature="0" />
  <path
     style="fill:#000000"
     d="m 251.15745,270.93027 c -0.32878,-0.53198 -1.93034,-0.70073 -3.55902,-0.375 -1.87779,0.37556 -2.96122,0.18064 -2.96122,-0.53275 0,-0.61875 -1.11643,-1.125 -2.48095,-1.125 -1.80699,0 -2.65003,-0.67367 -3.10336,-2.47987 -0.51045,-2.03382 -0.95052,-2.30427 -2.44661,-1.50359 -2.8106,1.5042 -4.96908,0.13911 -4.96908,-3.14258 0,-2.58047 -0.27532,-2.84296 -2.41784,-2.30523 -2.78107,0.69801 -4.90543,-2.13248 -4.38837,-5.84706 0.16842,-1.20988 -0.14379,-2.21159 -0.69379,-2.22604 -2.16989,-0.057 -3.5,-1.74566 -3.5,-4.44354 0,-2.08136 -0.46288,-2.79313 -1.75,-2.69098 -1.17762,0.0935 -1.84703,-0.69351 -2.04664,-2.40611 -0.24471,-2.09947 1.1084,-3.74461 7.72947,-9.39766 4.41437,-3.76896 8.29292,-7.69328 8.61902,-8.7207 0.32609,-1.02742 0.0498,-3.5138 -0.61411,-5.52527 l -1.20699,-3.65723 -2.72188,3.33498 c -3.35465,4.1103 -5.90583,3.66889 -5.23443,-0.90565 0.53584,-3.65094 -1.37121,-6.42218 -3.95459,-5.74662 -2.09075,0.54675 -2.36343,-0.39328 -0.61985,-2.13685 0.93333,-0.93334 0.8037,-1.2 -0.58334,-1.2 -0.98083,0 -1.60118,-0.54644 -1.37856,-1.21431 0.44324,-1.32971 -0.49104,-1.89257 -16.97148,-10.22461 -6.17836,-3.1236 -11.57836,-6.22598 -12,-6.89419 -0.42164,-0.6682 -2.08768,-2.05673 -3.70231,-3.08562 -7.18809,-4.58048 -13.56431,-12.59121 -13.56431,-17.04144 0,-2.31678 1.53725,-1.85088 2.76196,0.83707 1.94347,4.26544 7.64923,9.91739 11.91817,11.80578 2.29908,1.017 8.82408,2.53873 14.5,3.38161 12.02372,1.78554 20.40419,3.81666 24.44693,5.92507 5.13422,2.67764 7.82085,1.57803 8.52536,-3.48936 0.25418,-1.82824 -0.25701,-2.76525 -1.90242,-3.48713 -1.2375,-0.54292 -2.25,-1.30928 -2.25,-1.703 0,-0.77806 6.57027,-2.80905 9,-2.78207 2.24288,0.0249 5.57353,3.05348 7.43993,6.76516 3.45399,6.86885 7.44643,6.28571 29.06007,-4.24456 19.89883,-9.6948 48.18344,-29.2943 55.60758,-38.53264 2.92826,-3.64384 6.23669,-6.43833 5.06338,-3.38072 -0.27552,0.71799 -0.16789,3.39401 0.89824,3.67281 1.09998,0.28765 2.73119,-1.43144 2.73119,-0.28617 0,1.10566 -0.23789,5.00841 0.44961,5.24889 0.88992,0.31128 0.67388,1.08649 -0.75,2.69113 -1.1,1.23965 0.13769,2.28093 0.30477,3.29221 0.2001,1.21109 -2.73954,3.17811 -4.75098,4.21826 -1.73721,0.89835 -3.05379,2.37758 -3.05379,3.43106 0,1.01853 -0.675,2.41207 -1.5,3.09676 -0.825,0.68469 -0.16601,1.60764 -0.16601,2.37709 0,0.76944 -2.5521,2.21864 -4.0409,2.89435 -1.48881,0.67571 -4.52631,3.18184 -6.75,5.56917 -8.26217,8.87016 -14.74739,15.1594 -15.63181,15.1594 -0.50121,0 0.0225,0.7168 0.0225,1.2668 0,0.55 -1.83379,0.7332 -2.93379,0.7332 -1.1,0 -2,0.40276 -2,0.89504 0,0.49227 -1.11723,1.95477 -2.48272,3.25 -1.3655,1.29522 -2.4905,2.9656 -2.5,3.71195 -0.01,0.75716 -0.64374,1.11659 -1.43452,0.81314 -0.77948,-0.29912 -1.68328,0.14943 -2.00843,0.99676 -0.32515,0.84734 -1.23936,1.29189 -2.03157,0.98789 -0.82373,-0.31609 -1.68244,0.17463 -2.00579,1.14625 -0.51781,1.55596 -8.37461,7.81233 -9.53697,7.59429 -0.275,-0.0516 -0.99381,0.58153 -1.59736,1.40693 -0.85513,1.16946 -1.26901,1.22299 -1.875,0.24247 -0.61641,-0.99738 -0.95028,-0.9789 -1.61035,0.0891 -0.6849,1.1082 -1.33632,1.04987 -3.66995,-0.32864 l -2.83723,-1.676 -3.47398,4.68541 c -1.91069,2.57698 -3.32563,5.44354 -3.1443,6.37015 0.49487,2.52888 8.45121,7.20194 20.20817,11.86904 5.775,2.29247 11.12403,4.7583 11.88674,5.47963 2.1664,2.04886 0.59326,4.46659 -2.90625,4.46659 l -3.08227,0 2.56974,3.3691 c 3.08357,4.04278 2.51061,6.6309 -1.46796,6.6309 -1.55397,0 -3.04057,0.66334 -3.36163,1.5 -0.31658,0.825 -1.48972,1.5 -2.60699,1.5 -1.15751,0 -2.03138,0.65878 -2.03138,1.53138 0,2.10642 -2.42037,2.84919 -4.92186,1.51044 -1.85328,-0.99185 -2.07814,-0.83448 -2.07814,1.45438 0,3.16486 -2.59503,4.33734 -4.77496,2.15742 -1.49316,-1.49317 -1.72182,-1.37742 -2.92314,1.4797 -1.06143,2.52438 -1.75778,3.01269 -3.75249,2.63137 -1.49593,-0.28596 -2.65111,0.0579 -2.96793,0.88356 -0.59935,1.56189 -3.18243,1.80645 -4.06124,0.3845 z"
     id="path3038"
     inkscape:connector-curvature="0"
     sodipodi:nodetypes="ssssssssssscsssccsssssssssssssssssssssssssssssssssssssscsssscsssscssssscsssssssssscs" />
  <path
     style="fill:#000000"
     d="m 188.09302,248.80252 c -0.3537,-0.57237 -1.5269,-0.76019 -2.607,-0.41738 -1.0801,0.34281 -2.6515,0.0525 -3.4921,-0.64502 -1.2358,-1.02562 -1.6806,-1.02167 -2.3248,0.0206 -0.6147,0.99457 -1.2824,1.02894 -2.9238,0.15051 -1.1699,-0.6261 -2.1272,-1.60085 -2.1272,-2.16607 0,-0.56522 -0.7875,-0.93023 -1.75,-0.81113 -0.9625,0.1191 -2.425,-0.0344 -3.25,-0.34121 -0.825,-0.30676 -2.3302,-0.82819 -3.3449,-1.15873 -1.0147,-0.33054 -2.0786,-1.4944 -2.3641,-2.58635 -0.3909,-1.49481 -1.0854,-1.84325 -2.8108,-1.4102 -1.7461,0.43825 -2.4531,0.0664 -2.97,-1.56225 -0.5323,-1.67724 -0.9737,-1.89223 -2.0504,-0.99865 -1.5683,1.3015 -3.4598,0.48936 -3.4598,-1.48547 0,-1.80866 -2.9594,-2.82649 -4.5002,-1.54774 -0.9131,0.75778 -1.8829,0.23193 -3.6233,-1.96466 -1.5826,-1.99741 -2.9627,-2.81536 -4.1314,-2.44852 -1.0599,0.33271 -1.9933,-0.0705 -2.357,-1.0181 -0.3311,-0.86292 -1.468,-1.56895 -2.5264,-1.56895 -1.0584,0 -2.1725,-0.64659 -2.4758,-1.43686 -0.3033,-0.79027 -1.1052,-1.22432 -1.7821,-0.96456 -0.677,0.25976 -3.6712,-1.83093 -6.654,-4.64598 -2.9827,-2.81504 -7.3898,-6.01418 -9.7935,-7.10919 l -4.3703,-1.99092 -2.393,2.24806 c -1.7256,1.62109 -2.393,3.32891 -2.393,6.12342 0,7.96998 -2.5524,10.31523 -16.1924,14.87785 -9.1486,3.06025 -9.807,2.37469 -11.3162,-11.78347 -0.2452,-2.2999 -0.5685,-4.72803 -0.7186,-5.39584 -0.15,-0.66781 1.9772,-2.94055 4.7272,-5.05052 5.5027,-4.22198 10.4979,-12.87199 7.4333,-12.87199 -0.8859,0 -7.1868,-4.228 -8.9333,-5.99431 -1.3318,-1.34696 -5.1873,-3.00569 -6.9864,-3.00569 -1.1074,0 -2.0136,-0.45 -2.0136,-1 0,-0.55 -1.3018,-1 -2.893,-1 -1.7012,0 -3.14012,-0.64406 -3.4929,-1.56339 -0.32996,-0.85986 -1.01682,-1.30572 -1.52637,-0.9908 -0.50954,0.31491 -1.57884,-0.0798 -2.37623,-0.87722 -0.79926,-0.79926 -2.37453,-1.20796 -3.51072,-0.91083 -1.40128,0.36644 -2.48038,-0.13269 -3.37138,-1.55941 -0.72074,-1.15409 -2.07187,-2.09835 -3.00251,-2.09835 -0.93064,0 -1.97771,-0.9 -2.32684,-2 -0.34913,-1.1 -1.34035,-2 -2.20272,-2 -0.86236,0 -2.61055,-1.125 -3.88486,-2.5 -1.27431,-1.375 -2.59041,-2.5 -2.92466,-2.5 -1.04111,0 -9.94485,-7.08038 -10.78745,-8.57833 -0.43983,-0.78192 -1.45233,-1.42167 -2.25,-1.42167 -0.79767,0 -1.45031,-0.68614 -1.45031,-1.52475 0,-0.83862 -1.14549,-1.96027 -2.54554,-2.49257 -1.57937,-0.60047 -2.43337,-1.60964 -2.25,-2.6588 0.19178,-1.09729 -0.5822,-1.91509 -2.20446,-2.32931 -1.82124,-0.46502 -2.43533,-1.22969 -2.26179,-2.81645 0.14114,-1.29057 -0.31832,-2.17812 -1.12756,-2.17812 -0.75117,0 -1.9621,-0.71855 -2.69097,-1.59678 -1.11981,-1.34929 -1.05048,-1.75052 0.44733,-2.58874 1.69096,-0.94631 1.68879,-1.05603 -0.0472,-2.38422 -1.42736,-1.09203 -1.54002,-1.57712 -0.52244,-2.24953 1.03861,-0.68631 0.98875,-1.11338 -0.25,-2.14145 -2.12796,-1.76602 -1.93832,-3.03928 0.45263,-3.03928 1.11111,0 2,-0.66667 2,-1.5 0,-1.73499 1.79571,-1.90837 5.4349,-0.52475 2.03501,0.77371 2.5651,0.67038 2.5651,-0.5 0,-0.81139 0.15853,-1.47525 0.35228,-1.47525 0.19376,0 5.03126,1.95341 10.75,4.34091 5.71875,2.38751 13.76727,5.35798 17.88562,6.60105 10.53268,3.17915 12.65431,4.43113 29.43755,17.37112 16.608501,12.80535 21.5655,15.68692 26.9851,15.68692 2.9155,0 4.3638,-0.7207 6.8904,-3.4288 2.6057,-2.79281 3.941,-3.43124 7.199,-3.44191 5.5962,-0.0183 7.5,0.71039 7.5,2.87071 0,1.02587 -0.7875,2.11987 -1.75,2.4311 -1.9061,0.61637 -4.25,4.89897 -4.25,7.76538 0,2.21887 6.0689,9.0649 10.4193,11.75364 1.7744,1.09659 7.8947,3.61883 13.6007,5.60497 15.6001,5.43002 19.4175,7.7555 30.9287,18.84111 5.8033,5.58862 13.6882,12.3961 17.522,15.12773 6.7536,4.81186 6.8825,4.98231 4.1397,5.47133 l -2.8311,0.50474 2.1104,1.90499 c 2.9135,2.62995 2.6553,3.9486 -0.6125,3.12844 -2.6741,-0.67117 -2.6903,-0.6474 -0.902,1.32857 2.233,2.46752 1.3347,4.58829 -1.3377,3.15805 -1.5478,-0.82838 -1.7585,-0.6695 -1.3227,0.9973 0.5857,2.23972 0,2.43785 -2.7805,0.94747 -1.5219,-0.81451 -1.9343,-0.70792 -1.9343,0.5 0,1.74784 -1.5615,2.05365 -2.5251,0.4945 z"
     id="path3013"
     inkscape:connector-curvature="0" />
</svg>
